<svg xmlns="http://www.w3.org/2000/svg" fill="none" viewBox="0 0 231 165"><path fill="#ffc800" d="M46.5 129 0 82.5l44-44 13 13-31 31L59.5 116zm138 0L231 82.5l-44-44-13 13 31 31-33.5 33.5zm-103-27L67 116.5l48.5 48.5 48.5-48.5-14.5-14.5-34 34z"/><path fill="#ffc800" d="M115.5 103 64 51.5l-31 31 28 28L75.5 96 67 87.5l-6 6-11-11 9.5-9.5 56 56 56-56 9.5 9.5-11 11-6-6-8.5 8.5 14.5 14.5 28-28-31-31z"/><path fill="#ffc800" d="m115.5 93.5-31-31 31-31 31 31z"/><path fill="#ffc800" d="M68.75 46.75 115.5 0l46.75 46.75L149.5 59.5l-34-34-34 34z"/><path fill="#fff" d="M44.4347 8.5c0 25.5983-9.5079 40.2259-36.9347 40.2259 27.4268 0 36.9347 14.6277 36.9347 40.226 0-25.5983 9.508-40.226 36.9347-40.226-27.4267 0-36.9347-14.6276-36.9347-40.2259"/></svg>