<svg xmlns="http://www.w3.org/2000/svg" fill="none" viewBox="0 0 231 233"><path fill="#0bf" d="M46.5 158.5 0 112l44-44 13 13-31 31 33.5 33.5zm138 0L231 112l-44-44-13 13 31 31-33.5 33.5zm-105 7L64 181l51.5 51.5L167 181l-15.5-15.5-36 36z"/><path fill="#0bf" d="M81.5 131.5 67 146l48.5 48.5L164 146l-14.5-14.5-34 34z"/><path fill="#0bf" d="M115.5 132.5 64 81l-31 31 28 28 14.5-14.5L67 117l-6 6-11-11 9.5-9.5 56 56 56-56 9.5 9.5-11 11-6-6-8.5 8.5L170 140l28-28-31-31z"/><path fill="#0bf" d="m115.5 123-31-31 31-31 31 31z"/><path fill="#0bf" d="M68.75 76.25 115.5 29.5l46.75 46.75L149.5 89l-34-34-34 34z"/><path fill="#0bf" d="M79.5 61 67 48.5 115.5 0 164 48.5 151.5 61l-36-36z"/><path fill="#fff" d="M56.5 13c0 38.8182-14.4158 61-56 61 41.5842 0 56 22.1818 56 61 0-38.8182 14.4158-61 56-61-41.5842 0-56-22.1818-56-61m96 122c0 20.682-7.723 32.5-30 32.5 22.277 0 30 11.818 30 32.5 0-20.682 7.723-32.5 30-32.5-22.277 0-30-11.818-30-32.5"/></svg>